<svg width="180" height="31" viewBox="0 0 220 34" fill="none" xmlns="http://www.w3.org/2000/svg" class="gestaoclick logo-gc">
  <path d="M35.1551 27.961C35.4201 29.098 35.9351 29.909 36.6981 30.394C37.4611 30.879 38.6531 31.121 40.2741 31.121C42.2591 31.121 43.6331 30.569 44.3961 29.469C45.1591 28.369 45.5401 26.762 45.5401 24.658V22.661C44.8131 23.677 43.9361 24.464 42.9071 25.02C41.8781 25.576 40.6751 25.856 39.2941 25.856C37.9381 25.856 36.7581 25.608 35.7541 25.113C34.7766 24.6392 33.9243 23.9421 33.2661 23.078C32.6121 22.218 32.1221 21.221 31.7941 20.082C31.4593 18.8884 31.294 17.6536 31.3031 16.414C31.3031 14.986 31.4971 13.685 31.8851 12.511C32.2731 11.337 32.8291 10.332 33.5561 9.497C34.2799 8.66357 35.1791 8.00042 36.1891 7.555C37.2181 7.095 38.3731 6.864 39.6561 6.864C40.6971 6.864 41.7311 7.077 42.7611 7.5C43.7911 7.923 44.7271 8.705 45.5751 9.843V7.445H48.6981V23.167C48.6981 24.79 48.5831 26.248 48.3531 27.543C48.1231 28.838 47.6991 29.941 47.0821 30.848C46.4651 31.755 45.6121 32.451 44.5221 32.936C43.4321 33.421 42.0291 33.662 40.3101 33.662C37.8411 33.662 35.9041 33.22 34.5011 32.337C33.0981 31.454 32.2721 29.994 32.0311 27.961H35.1551ZM45.6121 16.123C45.6121 14.888 45.4671 13.854 45.1771 13.018C44.8871 12.182 44.4881 11.499 43.9781 10.966C43.4921 10.4485 42.8878 10.0567 42.2171 9.824C41.5453 9.5927 40.8396 9.47541 40.1291 9.477C39.3541 9.477 38.6341 9.606 37.9691 9.86C37.2978 10.1175 36.6995 10.5349 36.2261 11.076C35.7311 11.633 35.3411 12.346 35.0641 13.217C34.7871 14.088 34.6461 15.142 34.6461 16.377C34.6461 17.636 34.7971 18.701 35.1001 19.573C35.4031 20.445 35.7961 21.147 36.2801 21.679C36.7641 22.211 37.3261 22.599 37.9691 22.841C38.589 23.0791 39.2471 23.2021 39.9111 23.204C40.7341 23.204 41.4901 23.071 42.1811 22.805C42.8623 22.545 43.4765 22.1352 43.9781 21.606C44.4861 21.073 44.8851 20.402 45.1771 19.59C45.4691 18.778 45.6121 17.829 45.6121 16.739V16.123ZM69.7961 20.953C69.4821 22.769 68.6761 24.196 67.3821 25.238C66.0881 26.28 64.2271 26.8 61.8071 26.8C58.9501 26.8 56.7601 25.934 55.2341 24.203C53.7081 22.472 52.9481 20.057 52.9481 16.959C52.9481 15.337 53.1661 13.897 53.6011 12.638C54.0361 11.379 54.6481 10.326 55.4341 9.478C56.2184 8.63199 57.1791 7.96867 58.2481 7.535C59.3381 7.086 60.5241 6.863 61.8071 6.863C63.2601 6.863 64.5061 7.093 65.5471 7.554C66.5881 8.015 67.4401 8.649 68.1071 9.461C68.7741 10.273 69.2691 11.234 69.5951 12.347C69.9211 13.46 70.0861 14.685 70.0861 16.015V17.613H56.1431C56.1431 18.557 56.2711 19.435 56.5251 20.246C56.7791 21.057 57.1421 21.759 57.6141 22.352C58.0875 22.9462 58.6901 23.4246 59.3761 23.751C60.0781 24.09 60.8881 24.258 61.8091 24.258C63.3831 24.258 64.5321 23.963 65.2591 23.37C65.9861 22.777 66.4821 21.972 66.7481 20.955H69.7961V20.953ZM66.9281 15.252C66.9281 14.356 66.8301 13.545 66.6381 12.819C66.4675 12.1395 66.1584 11.5025 65.7301 10.948C65.3063 10.4171 64.7576 9.99933 64.1331 9.732C63.4801 9.442 62.6911 9.297 61.7721 9.297C60.1011 9.297 58.8001 9.805 57.8681 10.821C56.9361 11.837 56.3851 13.316 56.2161 15.252H66.9281ZM76.2961 20.735C76.5141 22.043 77.0641 22.956 77.9491 23.477C78.8341 23.998 80.0361 24.257 81.5621 24.257C83.1601 24.257 84.2911 23.985 84.9571 23.441C85.6231 22.897 85.9561 22.176 85.9561 21.28C85.9573 20.9311 85.915 20.5834 85.8301 20.245C85.744 19.9173 85.5749 19.6173 85.3391 19.374C85.0971 19.12 84.7581 18.896 84.3221 18.702C83.8861 18.508 83.3171 18.352 82.6151 18.23L80.2191 17.866C79.1541 17.697 78.2221 17.479 77.4241 17.213C76.6261 16.947 75.9461 16.602 75.3891 16.178C74.8462 15.7715 74.4151 15.2341 74.1361 14.616C73.8571 13.998 73.7191 13.255 73.7191 12.382C73.7191 11.509 73.9051 10.736 74.2821 10.06C74.6654 9.3745 75.1987 8.78447 75.8421 8.334C76.5071 7.862 77.2951 7.498 78.2021 7.244C79.1091 6.99 80.0971 6.864 81.1631 6.864C82.5181 6.864 83.6491 6.997 84.5581 7.263C85.4671 7.529 86.2101 7.892 86.7921 8.352C87.3556 8.79092 87.8144 9.34977 88.1351 9.988C88.4511 10.619 88.6921 11.282 88.8621 11.984L85.9931 12.456C85.8418 11.9912 85.6473 11.5415 85.4121 11.113C85.1986 10.73 84.9004 10.4009 84.5401 10.151C84.1369 9.87928 83.6881 9.68246 83.2151 9.57C82.6951 9.437 82.0461 9.37 81.2731 9.37C80.4011 9.37 79.6751 9.449 79.0931 9.607C78.5111 9.765 78.0471 9.975 77.6951 10.243C77.3431 10.511 77.0961 10.805 76.9501 11.131C76.8052 11.4567 76.7316 11.8096 76.7341 12.166C76.7341 12.554 76.7821 12.899 76.8781 13.202C76.9741 13.505 77.1571 13.771 77.4241 14C77.6911 14.229 78.0531 14.429 78.5141 14.599C78.9751 14.769 79.5651 14.913 80.2921 15.034L83.0161 15.469C85.2171 15.832 86.7981 16.463 87.7551 17.357C88.7121 18.251 89.1891 19.561 89.1891 21.279C89.1891 22.079 89.0311 22.811 88.7161 23.476C88.3867 24.1593 87.9021 24.7562 87.3011 25.219C86.6721 25.716 85.8841 26.104 84.9411 26.38C83.9981 26.656 82.8941 26.798 81.6361 26.798C80.4971 26.798 79.4391 26.689 78.4591 26.471C77.4791 26.253 76.6121 25.908 75.8621 25.435C75.1152 24.9668 74.4922 24.3253 74.0461 23.565C73.5861 22.789 73.3191 21.847 73.2461 20.733H76.2961V20.735ZM94.3061 9.95H91.4021V7.445H94.3061V2.325H97.4661V7.445H102.44V9.95H97.4661V20.953C97.4661 21.873 97.6711 22.611 98.0831 23.168C98.4951 23.725 99.1241 24.003 99.9711 24.003C100.503 24.003 100.97 23.967 101.37 23.895C101.746 23.8276 102.116 23.73 102.476 23.603L103.022 26.036C102.538 26.206 102.011 26.345 101.443 26.454C100.875 26.563 100.202 26.618 99.4261 26.618C98.3621 26.618 97.5031 26.46 96.8481 26.145C96.215 25.8485 95.6754 25.384 95.2881 24.802C94.9001 24.22 94.6401 23.531 94.5071 22.732C94.3684 21.8673 94.3015 20.9927 94.3071 20.117L94.3061 9.95ZM117.51 23.64C116.832 24.462 115.972 25.17 114.931 25.764C113.89 26.358 112.595 26.655 111.047 26.655C110.102 26.655 109.236 26.539 108.45 26.308C107.664 26.077 106.983 25.727 106.415 25.256C105.843 24.7793 105.389 24.1761 105.09 23.494C104.775 22.791 104.618 21.97 104.618 21.026C104.618 19.742 104.891 18.701 105.435 17.903C105.988 17.0971 106.738 16.4464 107.614 16.013C108.522 15.552 109.544 15.227 110.682 15.033C111.847 14.8366 113.024 14.7154 114.205 14.67L117.437 14.561V13.835C117.437 12.236 117.098 11.087 116.421 10.384C115.744 9.681 114.642 9.332 113.115 9.332C111.615 9.332 110.513 9.581 109.811 10.077C109.109 10.573 108.649 11.257 108.431 12.129L105.563 11.802C105.902 10.083 106.712 8.83 107.996 8.044C109.28 7.258 111.022 6.863 113.224 6.863C114.58 6.863 115.723 7.027 116.656 7.352C117.589 7.677 118.345 8.147 118.925 8.751C119.505 9.355 119.924 10.107 120.178 11.002C120.432 11.897 120.56 12.903 120.56 14.015V26.217H117.51V23.64ZM106.653 4.248C106.653 2.845 106.98 1.785 107.634 1.071C108.288 0.357 109.196 0 110.357 0C110.939 0 111.452 0.098 111.9 0.292C112.334 0.478 112.753 0.696 113.153 0.945L114.297 1.598C114.674 1.793 115.067 1.89 115.478 1.89C116.059 1.89 116.47 1.732 116.712 1.417C116.954 1.102 117.075 0.667 117.075 0.111H119.399C119.399 1.515 119.074 2.575 118.419 3.288C117.764 4.001 116.857 4.359 115.695 4.359C115.116 4.359 114.6 4.255 114.153 4.05C113.724 3.85462 113.306 3.63665 112.9 3.397L111.774 2.743C111.42 2.54046 111.02 2.43426 110.612 2.435C110.006 2.435 109.583 2.599 109.341 2.924C109.099 3.249 108.978 3.694 108.978 4.249L106.653 4.248ZM117.438 16.813L114.424 16.922C113.14 16.971 112.075 17.092 111.228 17.285C110.381 17.478 109.709 17.739 109.213 18.066C108.717 18.393 108.366 18.799 108.159 19.284C107.952 19.769 107.851 20.324 107.851 20.955C107.851 21.899 108.135 22.656 108.704 23.224C109.273 23.792 110.211 24.077 111.518 24.077C113.381 24.077 114.834 23.618 115.875 22.697C116.916 21.776 117.437 20.518 117.437 18.92L117.438 16.813ZM133.778 26.798C132.35 26.798 131.078 26.569 129.965 26.109C128.887 25.6733 127.919 25.0035 127.132 24.148C126.357 23.301 125.764 22.26 125.353 21.026C124.942 19.792 124.736 18.412 124.736 16.885C124.736 15.358 124.954 13.981 125.39 12.746C125.826 11.511 126.442 10.459 127.242 9.586C128.046 8.71141 129.031 8.02359 130.129 7.571C131.255 7.098 132.507 6.863 133.887 6.863C135.291 6.863 136.55 7.093 137.664 7.554C138.749 7.99489 139.723 8.67115 140.515 9.534C141.303 10.394 141.9 11.427 142.313 12.637C142.726 13.847 142.93 15.216 142.93 16.74C142.93 18.29 142.717 19.682 142.294 20.917C141.871 22.152 141.264 23.204 140.478 24.075C139.679 24.9549 138.692 25.6439 137.591 26.091C136.453 26.564 135.181 26.798 133.778 26.798ZM133.814 24.184C134.83 24.184 135.702 24.003 136.428 23.64C137.143 23.2864 137.76 22.7632 138.226 22.116C138.699 21.463 139.042 20.681 139.261 19.773C139.48 18.865 139.588 17.866 139.588 16.776C139.597 15.7861 139.487 14.7988 139.261 13.835C139.043 12.939 138.698 12.171 138.226 11.53C137.756 10.8904 137.14 10.3732 136.428 10.022C135.702 9.659 134.83 9.478 133.814 9.478C132.798 9.478 131.931 9.659 131.217 10.022C130.513 10.3763 129.903 10.8932 129.438 11.53C128.966 12.171 128.622 12.94 128.403 13.835C128.184 14.73 128.076 15.723 128.076 16.812C128.076 17.901 128.185 18.894 128.403 19.79C128.621 20.686 128.96 21.461 129.42 22.115C129.876 22.7643 130.488 23.2885 131.199 23.639C131.924 24.002 132.798 24.184 133.814 24.184Z" fill="#144272"></path>
  <path d="M162.727 19.5709C162.413 21.7269 161.59 23.4199 160.258 24.6539C158.926 25.8879 157.05 26.5059 154.629 26.5059C153.2 26.5059 151.935 26.2769 150.835 25.8169C149.772 25.3844 148.826 24.7066 148.075 23.8389C147.337 22.9799 146.78 21.9379 146.404 20.7159C146.028 19.4939 145.841 18.1209 145.841 16.5949C145.841 15.0929 146.047 13.7259 146.459 12.4919C146.871 11.2579 147.463 10.2029 148.237 9.33189C149.02 8.45416 149.988 7.76001 151.07 7.29889C152.184 6.81489 153.443 6.57189 154.847 6.57189C157.098 6.57189 158.843 7.12389 160.075 8.22489C161.307 9.32589 162.097 10.8449 162.436 12.7809L159.276 13.3629C159.165 12.792 159.001 12.2326 158.787 11.6919C158.59 11.1996 158.301 10.7497 157.934 10.3669C157.56 9.98529 157.108 9.68829 156.609 9.49589C156.09 9.29089 155.464 9.18689 154.738 9.18689C153.744 9.18689 152.899 9.37489 152.195 9.74889C151.499 10.1178 150.906 10.6551 150.471 11.3119C150.023 11.9779 149.696 12.7589 149.49 13.6549C149.279 14.5959 149.176 15.5577 149.182 16.5219C149.182 17.5379 149.278 18.4969 149.472 19.3909C149.666 20.2849 149.98 21.0679 150.417 21.7339C150.845 22.394 151.432 22.9367 152.123 23.3129C152.826 23.7009 153.685 23.8939 154.702 23.8939C156.227 23.8939 157.359 23.5089 158.097 22.7329C158.835 21.9569 159.313 20.9049 159.531 19.5729H162.727V19.5709ZM166.83 -0.000110626H169.99V25.9259H166.83V-0.000110626ZM174.891 -0.000110626H178.268V3.66789H174.891V-0.000110626ZM175 7.15289H178.16V25.9259H175V7.15289ZM199.366 19.5709C199.052 21.7269 198.229 23.4199 196.897 24.6539C195.565 25.8879 193.69 26.5059 191.268 26.5059C189.84 26.5059 188.574 26.2769 187.474 25.8169C186.411 25.3844 185.465 24.7066 184.714 23.8389C183.976 22.9799 183.419 21.9379 183.045 20.7159C182.671 19.4939 182.481 18.1209 182.481 16.5949C182.481 15.0929 182.687 13.7259 183.099 12.4919C183.511 11.2579 184.103 10.2029 184.877 9.33189C185.66 8.45416 186.628 7.76001 187.71 7.29889C188.824 6.81489 190.083 6.57189 191.487 6.57189C193.738 6.57189 195.483 7.12389 196.716 8.22489C197.949 9.32589 198.737 10.8449 199.076 12.7809L195.916 13.3629C195.805 12.792 195.641 12.2326 195.427 11.6919C195.231 11.1993 194.941 10.7494 194.574 10.3669C194.2 9.98507 193.748 9.68804 193.249 9.49589C192.729 9.29089 192.104 9.18689 191.378 9.18689C190.384 9.18689 189.539 9.37489 188.837 9.74889C188.141 10.1191 187.548 10.6561 187.111 11.3119C186.663 11.9779 186.336 12.7589 186.13 13.6549C185.919 14.5959 185.816 15.5577 185.822 16.5219C185.822 17.5379 185.918 18.4969 186.112 19.3909C186.306 20.2849 186.62 21.0679 187.057 21.7339C187.486 22.3941 188.072 22.9369 188.764 23.3129C189.466 23.7009 190.324 23.8939 191.342 23.8939C192.867 23.8939 193.999 23.5089 194.737 22.7329C195.475 21.9569 195.953 20.9049 196.172 19.5729H199.366V19.5709ZM203.396 -0.000110626H206.519V15.1059L215.306 7.15289H219.119L212.401 13.4349L219.846 25.9259H216.25L210.042 15.2869L206.519 18.4459V25.9259H203.396V-0.000110626ZM9.944 8.27089V5.68389L5.925 5.00289L5.905 5.01789V5.00689L5.147 5.58689V8.32089L9.163 8.62889L9.944 8.27089ZM5.905 7.90489V7.90089L5.912 7.90189L5.905 7.90489ZM15.834 13.0819V9.66689L11.541 8.97989V9.00489L10.493 9.49289V12.7959L14.862 13.2969L15.834 13.0819ZM15.074 5.06989L15.112 5.05589V2.67189L12.116 2.19289V2.21089L11.384 2.55089V4.85589L14.434 5.20589L15.074 5.06989ZM6.444 15.1839L6.503 15.1619V11.4099L1.787 10.6549V10.6829L0.634 11.2189V14.8479L5.436 15.3989L6.444 15.1839ZM18.276 15.7129L24.688 15.8269V12.1139L19.884 11.6419L19.684 11.6729L18.286 11.9759L18.254 15.7179L18.276 15.7129ZM6.956 25.3159V20.0969L0.537 19.6239V19.6159L0 19.5759V24.6279L0.537 25.0529V25.0819L6.956 25.3159ZM15.027 20.9499V16.4199L9.944 15.8269H7.941V20.5229L8.884 20.5779V20.5869L15.027 20.9499ZM25.017 17.4489C25.0144 17.3615 24.9792 17.2783 24.9183 17.2155C24.8574 17.1528 24.7753 17.1151 24.688 17.1099L17.6865 16.988L16.359 16.9799C16.3413 16.9791 16.3237 16.9818 16.3071 16.988C16.2905 16.9941 16.2753 17.0035 16.2625 17.0157C16.2496 17.0278 16.2393 17.0424 16.2322 17.0586C16.225 17.0748 16.2213 17.0922 16.221 17.1099L16.238 22.0019C16.238 22.0364 16.2243 22.0694 16.1999 22.0938C16.1755 22.1182 16.1425 22.1319 16.108 22.1319H8.638C8.6036 22.1322 8.57069 22.1459 8.54636 22.1703C8.52204 22.1946 8.50826 22.2275 8.508 22.2619V26.1049C8.508 26.1759 8.449 26.2349 8.378 26.2349L2.054 26.1939H1.958C1.94679 26.2119 1.94058 26.2326 1.94 26.2539L1.812 32.4619C1.81122 32.4923 1.82112 32.522 1.84 32.5459L2.294 33.0789L2.338 33.1339C2.35034 33.1501 2.36645 33.163 2.38493 33.1715C2.4034 33.1801 2.42368 33.184 2.444 33.1829L25 33.2129L25.017 17.4489Z" fill="#CF1016"></path>
</svg>